<mxfile host="65bd71144e">
    <diagram id="n_FQf2AKHFINR0Hc34nD" name="Page-1">
        <mxGraphModel dx="971" dy="655" grid="1" gridSize="10" guides="1" tooltips="1" connect="1" arrows="1" fold="1" page="1" pageScale="1" pageWidth="1654" pageHeight="1169" math="1" shadow="0">
            <root>
                <mxCell id="0"/>
                <mxCell id="1" parent="0"/>
                <mxCell id="84" style="edgeStyle=orthogonalEdgeStyle;rounded=0;html=1;entryX=-0.024;entryY=0.491;entryDx=0;entryDy=0;entryPerimeter=0;strokeWidth=2;elbow=vertical;fontSize=16;" parent="1" source="14" target="41" edge="1">
                    <mxGeometry relative="1" as="geometry">
                        <Array as="points">
                            <mxPoint x="633" y="690"/>
                        </Array>
                    </mxGeometry>
                </mxCell>
                <mxCell id="89" style="edgeStyle=orthogonalEdgeStyle;rounded=0;html=1;entryX=0;entryY=0.5;entryDx=0;entryDy=0;dashed=1;strokeColor=#FF0000;strokeWidth=2;elbow=vertical;fontSize=16;" parent="1" source="14" target="51" edge="1">
                    <mxGeometry relative="1" as="geometry">
                        <Array as="points">
                            <mxPoint x="727" y="610"/>
                            <mxPoint x="727" y="512"/>
                        </Array>
                    </mxGeometry>
                </mxCell>
                <mxCell id="108" style="edgeStyle=orthogonalEdgeStyle;html=1;entryX=0.5;entryY=1;entryDx=0;entryDy=0;dashed=1;strokeColor=#FF0000;strokeWidth=2;rounded=0;fontSize=16;" edge="1" parent="1" source="14" target="101">
                    <mxGeometry relative="1" as="geometry"/>
                </mxCell>
                <mxCell id="14" value="" style="verticalLabelPosition=bottom;outlineConnect=0;align=center;dashed=0;html=1;verticalAlign=top;shape=mxgraph.pid2misc.column;columnType=tray;fontSize=16;" parent="1" vertex="1">
                    <mxGeometry x="578" y="352" width="110" height="300" as="geometry"/>
                </mxCell>
                <mxCell id="18" style="edgeStyle=orthogonalEdgeStyle;rounded=0;orthogonalLoop=1;jettySize=auto;html=1;strokeWidth=2;entryX=-0.009;entryY=0.388;entryDx=0;entryDy=0;entryPerimeter=0;fontSize=16;" parent="1" target="25" edge="1">
                    <mxGeometry relative="1" as="geometry">
                        <mxPoint x="770" y="370" as="targetPoint"/>
                        <Array as="points">
                            <mxPoint x="770" y="370"/>
                        </Array>
                        <mxPoint x="690" y="370" as="sourcePoint"/>
                    </mxGeometry>
                </mxCell>
                <mxCell id="67" style="edgeStyle=orthogonalEdgeStyle;rounded=0;html=1;entryX=0;entryY=0.5;entryDx=0;entryDy=0;strokeColor=#FF0000;strokeWidth=2;dashed=1;fontSize=16;" parent="1" target="91" edge="1">
                    <mxGeometry relative="1" as="geometry">
                        <mxPoint x="400" y="502" as="sourcePoint"/>
                        <Array as="points">
                            <mxPoint x="400" y="397"/>
                        </Array>
                    </mxGeometry>
                </mxCell>
                <mxCell id="21" value="" style="verticalLabelPosition=bottom;align=center;html=1;verticalAlign=top;pointerEvents=1;dashed=0;shape=mxgraph.pid2valves.valve;valveType=ball;fontSize=16;" parent="1" vertex="1">
                    <mxGeometry x="435" y="492" width="30" height="20" as="geometry"/>
                </mxCell>
                <mxCell id="58" style="edgeStyle=orthogonalEdgeStyle;html=1;strokeColor=default;strokeWidth=2;rounded=0;fontSize=16;" parent="1" source="25" edge="1">
                    <mxGeometry relative="1" as="geometry">
                        <mxPoint x="860" y="370" as="targetPoint"/>
                        <Array as="points">
                            <mxPoint x="850" y="370"/>
                            <mxPoint x="850" y="370"/>
                        </Array>
                    </mxGeometry>
                </mxCell>
                <mxCell id="25" value="" style="verticalLabelPosition=bottom;align=center;html=1;verticalAlign=top;pointerEvents=1;dashed=0;shape=mxgraph.pid2valves.valve;valveType=ball;fontSize=16;" parent="1" vertex="1">
                    <mxGeometry x="775" y="362" width="30" height="20" as="geometry"/>
                </mxCell>
                <mxCell id="30" value="&lt;font style=&quot;font-size: 16px;&quot;&gt;FC&lt;/font&gt;" style="ellipse;whiteSpace=wrap;html=1;fontSize=16;" parent="1" vertex="1">
                    <mxGeometry x="430" y="430" width="40" height="40" as="geometry"/>
                </mxCell>
                <mxCell id="39" style="edgeStyle=orthogonalEdgeStyle;rounded=0;orthogonalLoop=1;jettySize=auto;html=1;entryX=0.507;entryY=0.26;entryDx=0;entryDy=0;entryPerimeter=0;strokeWidth=2;dashed=1;fillColor=#a20025;strokeColor=#FF0000;exitX=0.5;exitY=1;exitDx=0;exitDy=0;fontSize=16;" parent="1" source="102" target="25" edge="1">
                    <mxGeometry relative="1" as="geometry">
                        <mxPoint x="903" y="340" as="sourcePoint"/>
                    </mxGeometry>
                </mxCell>
                <mxCell id="85" style="edgeStyle=orthogonalEdgeStyle;rounded=0;html=1;strokeWidth=2;elbow=vertical;fontSize=16;" parent="1" source="41" edge="1">
                    <mxGeometry relative="1" as="geometry">
                        <mxPoint x="850" y="690" as="targetPoint"/>
                    </mxGeometry>
                </mxCell>
                <mxCell id="41" value="" style="verticalLabelPosition=bottom;align=center;html=1;verticalAlign=top;pointerEvents=1;dashed=0;shape=mxgraph.pid2valves.valve;valveType=ball;fontSize=16;" parent="1" vertex="1">
                    <mxGeometry x="775" y="680" width="30" height="20" as="geometry"/>
                </mxCell>
                <mxCell id="50" style="edgeStyle=orthogonalEdgeStyle;rounded=0;orthogonalLoop=1;jettySize=auto;html=1;entryX=0.507;entryY=0.24;entryDx=0;entryDy=0;entryPerimeter=0;dashed=1;endSize=6;curved=0;strokeColor=#FF0000;strokeWidth=2;fontSize=16;" parent="1" source="30" target="21" edge="1">
                    <mxGeometry relative="1" as="geometry"/>
                </mxCell>
                <mxCell id="90" style="edgeStyle=orthogonalEdgeStyle;rounded=0;html=1;entryX=0.25;entryY=0;entryDx=0;entryDy=0;dashed=1;strokeColor=#FF0000;strokeWidth=2;elbow=vertical;fontSize=16;" parent="1" source="51" target="86" edge="1">
                    <mxGeometry relative="1" as="geometry"/>
                </mxCell>
                <mxCell id="97" value="L" style="edgeLabel;html=1;align=center;verticalAlign=middle;resizable=0;points=[];fontSize=16;" parent="90" vertex="1" connectable="0">
                    <mxGeometry x="-0.7464" relative="1" as="geometry">
                        <mxPoint x="13" y="7" as="offset"/>
                    </mxGeometry>
                </mxCell>
                <mxCell id="92" style="edgeStyle=orthogonalEdgeStyle;rounded=0;html=1;entryX=1;entryY=0.5;entryDx=0;entryDy=0;dashed=1;strokeColor=#FF0000;strokeWidth=2;elbow=vertical;fontSize=16;" parent="1" source="51" target="91" edge="1">
                    <mxGeometry relative="1" as="geometry">
                        <Array as="points">
                            <mxPoint x="777" y="450"/>
                            <mxPoint x="520" y="450"/>
                            <mxPoint x="520" y="397"/>
                        </Array>
                    </mxGeometry>
                </mxCell>
                <mxCell id="96" value="H" style="edgeLabel;html=1;align=center;verticalAlign=middle;resizable=0;points=[];fontSize=16;" parent="92" vertex="1" connectable="0">
                    <mxGeometry x="-0.8576" y="1" relative="1" as="geometry">
                        <mxPoint x="14" y="11" as="offset"/>
                    </mxGeometry>
                </mxCell>
                <mxCell id="51" value="&lt;font style=&quot;font-size: 16px;&quot;&gt;LC&lt;/font&gt;" style="ellipse;whiteSpace=wrap;html=1;fontSize=16;" parent="1" vertex="1">
                    <mxGeometry x="757" y="492" width="40" height="40" as="geometry"/>
                </mxCell>
                <mxCell id="66" style="edgeStyle=orthogonalEdgeStyle;html=1;strokeColor=default;strokeWidth=2;rounded=0;fontSize=16;" parent="1" edge="1">
                    <mxGeometry relative="1" as="geometry">
                        <mxPoint x="370" y="502" as="sourcePoint"/>
                        <mxPoint x="435" y="501.83" as="targetPoint"/>
                        <Array as="points">
                            <mxPoint x="435" y="502"/>
                        </Array>
                    </mxGeometry>
                </mxCell>
                <mxCell id="65" style="edgeStyle=orthogonalEdgeStyle;html=1;strokeColor=default;strokeWidth=2;rounded=0;fontSize=16;" parent="1" source="21" target="14" edge="1">
                    <mxGeometry relative="1" as="geometry"/>
                </mxCell>
                <mxCell id="88" style="edgeStyle=orthogonalEdgeStyle;rounded=0;html=1;strokeWidth=2;elbow=vertical;strokeColor=#FF0000;dashed=1;fontSize=16;" parent="1" source="86" target="41" edge="1">
                    <mxGeometry relative="1" as="geometry"/>
                </mxCell>
                <mxCell id="86" value="MIN" style="whiteSpace=wrap;html=1;fontSize=16;" parent="1" vertex="1">
                    <mxGeometry x="765" y="622" width="50" height="30" as="geometry"/>
                </mxCell>
                <mxCell id="93" style="edgeStyle=orthogonalEdgeStyle;rounded=0;html=1;entryX=0.5;entryY=0;entryDx=0;entryDy=0;dashed=1;strokeColor=#FF0000;strokeWidth=2;elbow=vertical;fontSize=16;" parent="1" source="91" target="30" edge="1">
                    <mxGeometry relative="1" as="geometry"/>
                </mxCell>
                <mxCell id="91" value="MIN" style="whiteSpace=wrap;html=1;fontSize=16;" parent="1" vertex="1">
                    <mxGeometry x="425" y="382" width="50" height="30" as="geometry"/>
                </mxCell>
                <mxCell id="94" style="edgeStyle=orthogonalEdgeStyle;rounded=0;html=1;entryX=0.75;entryY=0;entryDx=0;entryDy=0;dashed=1;strokeColor=#FF0000;strokeWidth=2;fontSize=16;" parent="1" target="86" edge="1">
                    <mxGeometry relative="1" as="geometry">
                        <Array as="points">
                            <mxPoint x="802" y="580"/>
                        </Array>
                        <mxPoint x="840" y="580" as="sourcePoint"/>
                        <mxPoint x="870.0000000000002" y="577.98" as="targetPoint"/>
                    </mxGeometry>
                </mxCell>
                <mxCell id="95" value="$$L_S$$" style="edgeLabel;html=1;align=center;verticalAlign=middle;resizable=0;points=[];fontSize=16;" parent="94" vertex="1" connectable="0">
                    <mxGeometry x="0.5131" relative="1" as="geometry">
                        <mxPoint x="28" y="-23" as="offset"/>
                    </mxGeometry>
                </mxCell>
                <mxCell id="99" style="edgeStyle=orthogonalEdgeStyle;rounded=0;html=1;entryX=0.25;entryY=0;entryDx=0;entryDy=0;dashed=1;strokeColor=#FF0000;strokeWidth=2;elbow=vertical;fontSize=16;" parent="1" source="101" target="102" edge="1">
                    <mxGeometry relative="1" as="geometry"/>
                </mxCell>
                <mxCell id="100" value="L" style="edgeLabel;html=1;align=center;verticalAlign=middle;resizable=0;points=[];fontSize=16;" parent="99" vertex="1" connectable="0">
                    <mxGeometry x="-0.7464" relative="1" as="geometry">
                        <mxPoint y="16" as="offset"/>
                    </mxGeometry>
                </mxCell>
                <mxCell id="105" style="edgeStyle=orthogonalEdgeStyle;rounded=0;html=1;entryX=0.5;entryY=0;entryDx=0;entryDy=0;dashed=1;strokeColor=#FF0000;strokeWidth=2;fontSize=16;elbow=vertical;" parent="1" source="101" target="91" edge="1">
                    <mxGeometry relative="1" as="geometry"/>
                </mxCell>
                <mxCell id="107" value="H" style="edgeLabel;html=1;align=center;verticalAlign=middle;resizable=0;points=[];fontSize=16;" parent="105" vertex="1" connectable="0">
                    <mxGeometry x="-0.7843" relative="1" as="geometry">
                        <mxPoint x="-5" y="20" as="offset"/>
                    </mxGeometry>
                </mxCell>
                <mxCell id="101" value="&lt;font style=&quot;font-size: 16px;&quot;&gt;PC&lt;/font&gt;" style="ellipse;whiteSpace=wrap;html=1;fontSize=16;" parent="1" vertex="1">
                    <mxGeometry x="613" y="230" width="40" height="40" as="geometry"/>
                </mxCell>
                <mxCell id="102" value="MIN" style="whiteSpace=wrap;html=1;fontSize=16;" parent="1" vertex="1">
                    <mxGeometry x="765" y="302" width="50" height="30" as="geometry"/>
                </mxCell>
                <mxCell id="103" style="edgeStyle=elbowEdgeStyle;rounded=0;html=1;entryX=0.75;entryY=0;entryDx=0;entryDy=0;dashed=1;strokeColor=#FF0000;strokeWidth=2;fontSize=16;elbow=vertical;" parent="1" target="102" edge="1">
                    <mxGeometry relative="1" as="geometry">
                        <mxPoint x="840" y="250" as="sourcePoint"/>
                        <mxPoint x="870.0000000000002" y="205.98000000000002" as="targetPoint"/>
                    </mxGeometry>
                </mxCell>
                <mxCell id="104" value="$$V_S$$" style="edgeLabel;html=1;align=center;verticalAlign=middle;resizable=0;points=[];fontSize=16;" parent="103" vertex="1" connectable="0">
                    <mxGeometry x="0.5131" relative="1" as="geometry">
                        <mxPoint x="38" y="-10" as="offset"/>
                    </mxGeometry>
                </mxCell>
            </root>
        </mxGraphModel>
    </diagram>
</mxfile>